<?xml version="1.0" encoding="iso-8859-1"?>
<!-- Uploaded to: SVG Repo, www.svgrepo.com, Generator: SVG Repo Mixer Tools -->
<svg height="800px" width="800px" version="1.1" id="Layer_1" xmlns="http://www.w3.org/2000/svg" xmlns:xlink="http://www.w3.org/1999/xlink" 
	 viewBox="0 0 512 512" xml:space="preserve">
<path style="fill:#F2F2F2;" d="M493.268,512H18.732C8.387,512,0,503.613,0,493.268V18.732C0,8.387,8.387,0,18.732,0h474.537
	C503.613,0,512,8.387,512,18.732v474.537C512,503.613,503.613,512,493.268,512z"/>
<g>
	<path style="fill:#CDD6E0;" d="M493.268,0H256v512h237.268c10.345,0,18.732-8.387,18.732-18.732V18.732
		C512,8.387,503.613,0,493.268,0z"/>
	<path style="fill:#CDD6E0;" d="M374.634,474.537H159.22v-81.171h99.902c10.345,0,18.732-8.387,18.732-18.732
		c0-10.345-8.387-18.732-18.732-18.732H140.488c-10.345,0-18.732,8.387-18.732,18.732v99.902H37.463V274.732h99.902
		c10.345,0,18.732-8.387,18.732-18.732c0-10.345-8.387-18.732-18.732-18.732H37.463v-99.9c0-10.345-8.387-18.732-18.732-18.732
		S0,127.023,0,137.368v355.9C0,503.613,8.387,512,18.732,512h355.902c10.345,0,18.732-8.387,18.732-18.732
		C393.366,482.923,384.98,474.537,374.634,474.537z"/>
	<path style="fill:#CDD6E0;" d="M493.268,0c-6.211,0-468.34,0-474.537,0C8.387,0,0,8.387,0,18.732s8.387,18.732,18.732,18.732
		h99.902v99.902c0,10.345,8.387,18.732,18.732,18.732s18.732-8.387,18.732-18.732V37.463h199.805v99.902
		c0,10.345,8.387,18.732,18.732,18.732h99.902v81.166c-8.783,0-191.045,0-199.805,0v-93.999c0-10.345-8.387-18.732-18.732-18.732
		c-10.345,0-18.732,8.387-18.732,18.732v112.731c0,10.345,8.387,18.732,18.732,18.732h99.902v99.902
		c0,10.345,8.387,18.732,18.732,18.732c10.345,0,18.732-8.387,18.732-18.732v-99.902h81.171v218.542
		c0,10.345,8.387,18.732,18.732,18.732c10.345,0,18.732-8.387,18.732-18.732c0-6.196,0-468.325,0-474.537
		C512,8.387,503.613,0,493.268,0z M393.366,118.634V37.463h81.171v81.171H393.366z"/>
</g>
<g>
	<path style="fill:#AEB6BD;" d="M259.122,393.366c10.345,0,18.732-8.387,18.732-18.732c0-10.345-8.387-18.732-18.732-18.732H256
		v37.463H259.122z"/>
	<path style="fill:#AEB6BD;" d="M374.634,474.537H256V512h118.634c10.345,0,18.732-8.387,18.732-18.732
		C393.366,482.923,384.98,474.537,374.634,474.537z"/>
	<path style="fill:#AEB6BD;" d="M493.268,0C490.163,0,373.081,0,256,0v37.463h99.902v99.902c0,10.345,8.387,18.732,18.732,18.732
		h99.902v81.166c-8.783,0-191.045,0-199.805,0v-93.999c0-10.345-8.387-18.732-18.732-18.732v150.195h99.902v99.902
		c0,10.345,8.387,18.732,18.732,18.732c10.345,0,18.732-8.387,18.732-18.732v-99.902h81.171v218.542
		c0,10.345,8.387,18.732,18.732,18.732c10.345,0,18.732-8.387,18.732-18.732c0-6.196,0-468.325,0-474.537
		C512,8.387,503.613,0,493.268,0z M474.537,118.634h-81.171V37.463h81.171V118.634z"/>
</g>
</svg>